<mxfile host="app.diagrams.net" modified="2023-06-20T07:22:25.759Z" agent="Mozilla/5.0 (Macintosh; Intel Mac OS X 10_15_7) AppleWebKit/537.36 (KHTML, like Gecko) Chrome/114.0.0.0 Safari/537.36" version="21.5.0" etag="ylIvmWXqsqa2pdL4bSbD" type="github">
  <diagram name="Page-1" id="5gMXsg1jemhnGqZoruSG">
    <mxGraphModel>
      <root>
        <mxCell id="0" />
        <mxCell id="1" parent="0" />
      </root>
    </mxGraphModel>
  </diagram>
</mxfile>
